<svg width="776" height="735" viewBox="0 0 776 735" fill="none" xmlns="http://www.w3.org/2000/svg">
<g filter="url(#filter0_d_0_4)">
<path d="M767.366 1108.56C779.642 1017.23 768.214 919.831 723.505 838.292C681.654 762.014 601.045 734.633 552.1 666.517C499.679 593.509 551.533 505.902 587.302 438.26C631.693 354.376 656.346 259.143 626.917 165.227C569.468 -17.9751 349.556 -38.5346 218.639 55.5432C137.336 114.01 90.4462 232.778 39.6007 316.858C-33.8893 438.457 -137.503 503.655 -269.297 546.068C-360.953 575.565 -456.652 605.345 -514.603 687.319C-594.016 799.657 -588.475 951.308 -523.784 1069.17C-461.994 1181.65 -356.202 1263.66 -244.497 1326.81C-126.922 1393.26 -0.320202 1442.27 131.344 1472.32C238.264 1496.68 350.385 1508.24 457.435 1484.34C537.256 1466.49 621.86 1428.19 676.055 1365.12C703.016 1333.76 715.824 1287.93 730.856 1249.56C748.622 1204.19 760.88 1156.85 767.366 1108.56V1108.56Z" fill="#BDC7FF"/>
<path d="M723.067 838.533C767.714 919.958 779.136 1017.24 766.87 1108.49C760.39 1156.75 748.142 1204.05 730.39 1249.38C727.329 1257.19 724.367 1265.3 721.361 1273.52C716.97 1285.53 712.486 1297.8 707.468 1309.78C699.024 1329.93 689.106 1349.17 675.676 1364.8C621.576 1427.76 537.088 1466.01 457.326 1483.85C350.379 1507.73 238.341 1496.18 131.455 1471.83C-0.161777 1441.8 -126.718 1392.8 -244.251 1326.38C-355.921 1263.24 -461.62 1181.3 -523.345 1068.93C-587.964 951.2 -593.476 799.759 -514.194 687.608C-457.242 607.046 -363.752 576.975 -273.356 547.899C-271.951 547.447 -270.547 546.996 -269.144 546.544C-137.271 504.106 -33.5407 438.847 40.0286 317.117C52.7478 296.084 65.218 272.884 78.0332 249.015L78.4393 248.259C91.1286 224.623 104.163 200.345 118.128 176.851C146.36 129.357 178.365 85.1209 218.931 55.9493C284.275 8.99242 371.84 -9.35743 450.227 6.89477C528.596 23.1432 597.777 73.97 626.44 165.377C655.813 259.115 631.219 354.203 586.86 438.026C584.951 441.636 582.995 445.304 581.012 449.025C564.427 480.136 545.884 514.919 536.148 550.244C525.242 589.813 525.364 630.14 551.694 666.809C573.891 697.7 602.588 720.23 631.178 742.675C634.173 745.026 637.167 747.377 640.152 749.736C671.652 774.628 702.194 800.49 723.067 838.533Z" stroke="black"/>
</g>
<defs>
<filter id="filter0_d_0_4" x="-577.241" y="0.589539" width="1353.22" height="1504.88" filterUnits="userSpaceOnUse" color-interpolation-filters="sRGB">
<feFlood flood-opacity="0" result="BackgroundImageFix"/>
<feColorMatrix in="SourceAlpha" type="matrix" values="0 0 0 0 0 0 0 0 0 0 0 0 0 0 0 0 0 0 127 0" result="hardAlpha"/>
<feOffset dy="4"/>
<feGaussianBlur stdDeviation="2"/>
<feComposite in2="hardAlpha" operator="out"/>
<feColorMatrix type="matrix" values="0 0 0 0 0 0 0 0 0 0 0 0 0 0 0 0 0 0 0.25 0"/>
<feBlend mode="normal" in2="BackgroundImageFix" result="effect1_dropShadow_0_4"/>
<feBlend mode="normal" in="SourceGraphic" in2="effect1_dropShadow_0_4" result="shape"/>
</filter>
</defs>
</svg>
