<svg width="106" height="141" viewBox="0 0 106 141" fill="none" xmlns="http://www.w3.org/2000/svg">
<path d="M132.863 43.7586C135.094 49.3149 136.651 55.2268 137.429 61.388L134.453 61.7639C134.814 64.6224 135 67.5382 135 70.5C135 73.4618 134.814 76.3776 134.453 79.2361L137.429 79.612C136.651 85.7732 135.094 91.6851 132.863 97.2415L130.079 96.1236C127.884 101.592 125.006 106.701 121.555 111.339L123.961 113.13C120.313 118.033 116.05 122.433 111.29 126.21L109.425 123.86C104.876 127.471 99.8553 130.484 94.4753 132.789L95.6565 135.546C90.1351 137.911 84.249 139.564 78.1084 140.391L77.7078 137.418C74.8598 137.802 71.9533 138 69 138C66.0467 138 63.1402 137.802 60.2922 137.418L59.8916 140.391C53.751 139.564 47.8649 137.911 42.3435 135.546L43.5247 132.789C38.1447 130.484 33.1238 127.471 28.5746 123.86L26.7096 126.21C21.9499 122.433 17.6872 118.033 14.0387 113.13L16.4454 111.339C12.9942 106.701 10.1165 101.592 7.92077 96.1236L5.13681 97.2414C2.9058 91.6851 1.34919 85.7732 0.571024 79.612L3.54738 79.2361C3.18635 76.3776 3 73.4618 3 70.5C3 67.5382 3.18635 64.6224 3.54738 61.7639L0.571026 61.388C1.34919 55.2268 2.9058 49.3149 5.13682 43.7585L7.92078 44.8764C10.1165 39.4079 12.9942 34.2994 16.4454 29.6614L14.0387 27.8705C17.6872 22.9673 21.9499 18.5671 26.7096 14.7897L28.5746 17.1396C33.1238 13.5293 38.1447 10.5157 43.5247 8.21127L42.3435 5.45359C47.8649 3.08864 53.751 1.43619 59.8916 0.608797L60.2922 3.58193C63.1402 3.19819 66.0467 3 69 3C71.9533 3 74.8598 3.19819 77.7078 3.58193L78.1084 0.608795C84.249 1.43619 90.1351 3.08864 95.6565 5.45359L94.4753 8.21127C99.8553 10.5157 104.876 13.5293 109.425 17.1396L111.29 14.7897C116.05 18.5671 120.313 22.9673 123.961 27.8705L121.555 29.6614C125.006 34.2995 127.884 39.408 130.079 44.8764L132.863 43.7586Z" stroke="#4D4D4D" stroke-width="6" stroke-linejoin="round" stroke-dasharray="21 21"/>
</svg>
