<svg width="33" height="33" viewBox="0 0 33 33" fill="none" xmlns="http://www.w3.org/2000/svg">
<circle cx="16.5" cy="16.5" r="16.5" fill="#2C2C2C"/>
<path d="M22.7138 20.5218C22.1954 22.6882 19.9699 24.8706 18.922 25.6822C20.4387 24.1121 19.9539 21.5818 19.522 20.5218C19.8291 20.5218 20.2259 21.1512 20.3859 21.4659C22.1378 20.7703 20.4099 14.3607 20.3859 14.5594C20.3619 14.7582 18.97 17.5903 19.282 16.4475C19.5939 15.3047 17.1941 11.1808 16.4501 11.1808C15.855 11.1808 14.7782 13.4332 14.3142 14.5594L14.9622 15.9755C13.3687 15.7171 12.3943 13.0357 12.1064 11.7273C13.2183 10.0794 15.6438 6.82822 16.4501 7.00709C17.4581 7.23068 20.6979 12.1745 20.6979 12.1248C20.6979 12.0751 21.6338 11.1808 21.6338 11.1808C21.6338 11.1808 22.4098 13.6816 22.7138 14.7582C22.9298 15.7768 23.2322 18.3555 22.7138 20.5218Z" fill="url(#paint0_linear_0_423)"/>
<path d="M15.1152 25.7174C16.3229 26.245 18.1587 25.9149 18.922 25.6822C17.6312 25.875 16.6187 24.7123 16.2774 24.1085C16.1656 24.2634 16.3171 24.6926 16.4069 24.8878C15.4417 25.5176 13.056 22.3126 13.1582 22.3729C13.2605 22.4332 15.0995 22.7628 14.4483 22.504C13.7972 22.2451 12.7312 19.5337 13.0021 19.1587C13.2189 18.8587 14.6704 19.1362 15.3691 19.3124L15.7993 20.1546C16.258 19.2573 15.3515 17.7898 14.8409 17.1682C13.6609 17.1286 11.2484 17.1673 11.0389 17.6389C10.7771 18.2284 11.9228 21.6617 11.8994 21.6436C11.8761 21.6256 11.1146 21.7717 11.1146 21.7717C11.1146 21.7717 12.0084 23.0735 12.4041 23.6187C12.8045 24.0985 13.9074 25.1899 15.1152 25.7174Z" fill="url(#paint1_linear_0_423)"/>
<defs>
<linearGradient id="paint0_linear_0_423" x1="13.2746" y1="17.7661" x2="20.7504" y2="25.5398" gradientUnits="userSpaceOnUse">
<stop stop-color="white"/>
</linearGradient>
<linearGradient id="paint1_linear_0_423" x1="13.2746" y1="17.7661" x2="20.7504" y2="25.5398" gradientUnits="userSpaceOnUse">
<stop stop-color="white"/>
</linearGradient>
</defs>
</svg>
